<?xml version="1.0" standalone="no"?>
<!DOCTYPE svg PUBLIC "-//W3C//DTD SVG 20010904//EN"
 "http://www.w3.org/TR/2001/REC-SVG-20010904/DTD/svg10.dtd">
<svg version="1.0" xmlns="http://www.w3.org/2000/svg"
 width="176.000000pt" height="176.000000pt" viewBox="0 0 176.000000 176.000000"
 preserveAspectRatio="xMidYMid meet">
<metadata>
Created by potrace 1.11, written by Peter Selinger 2001-2013
</metadata>
<g transform="translate(0.000000,176.000000) scale(0.100000,-0.100000)"
fill="#000000" stroke="none">
<path d="M188 1363 c-9 -2 -21 -16 -26 -31 -5 -15 -10 -160 -11 -322 -2 -303
-3 -328 -12 -345 -10 -17 22 -199 37 -216 13 -14 19 -15 52 -3 20 7 52 13 69
14 18 0 32 3 31 8 -1 4 4 18 11 31 13 23 11 175 -4 346 -2 22 -5 61 -7 87 -2
27 -6 48 -10 48 -4 0 -3 14 2 30 5 18 5 30 0 30 -6 0 -6 10 0 25 5 13 6 26 2
29 -12 7 -15 243 -3 250 26 17 6 26 -51 25 -35 -1 -71 -3 -80 -6z"/>
<path d="M644 1337 c-17 -18 -44 -50 -60 -72 -16 -22 -33 -43 -39 -47 -5 -4
-6 -8 -2 -8 5 0 -10 -19 -32 -42 -23 -22 -41 -48 -41 -57 -1 -22 -39 -83 -82
-129 -19 -20 -32 -44 -30 -52 3 -8 9 -26 14 -40 5 -14 9 -26 8 -28 0 -1 9 -12
21 -25 11 -12 34 -49 51 -82 17 -33 36 -67 43 -75 8 -8 14 -19 14 -23 0 -4 30
-51 67 -102 l67 -95 66 -1 c36 -1 71 0 76 1 6 1 25 3 44 3 20 1 38 9 45 19 9
15 1 28 -50 80 -71 73 -82 89 -159 223 -32 55 -65 105 -74 112 -14 10 -14 14
6 40 12 15 34 53 49 83 26 55 102 157 143 194 28 25 55 82 46 96 -4 6 -1 17 5
25 22 26 0 35 -83 34 -79 0 -83 -1 -113 -32z"/>
<path d="M1175 1361 c-2 -2 -40 -7 -84 -12 -45 -4 -85 -10 -91 -14 -5 -3 -10
-30 -11 -58 -1 -29 -4 -63 -8 -77 -4 -14 -4 -41 0 -60 8 -38 20 -193 18 -225
-1 -11 -2 -119 -3 -240 l-1 -220 72 2 c39 0 76 3 80 6 5 3 15 2 23 -4 8 -5 94
-9 190 -9 l175 0 2 27 c0 15 6 29 12 31 18 6 13 42 -6 42 -15 0 -14 2 2 20 9
10 15 26 12 34 -5 14 -31 15 -191 9 l-184 -6 -7 47 c-4 26 -4 76 1 109 8 54
12 62 29 59 50 -6 216 -8 220 -2 3 4 16 5 29 3 20 -4 26 0 31 20 9 35 2 130
-10 139 -5 4 -67 8 -137 8 -145 0 -138 -5 -138 98 0 90 -4 84 45 81 25 -2 50
2 56 8 10 10 36 10 239 -1 24 -1 25 1 23 59 -2 72 -11 125 -21 125 -125 7
-238 7 -257 0 -12 -5 -26 -6 -29 -3 -6 7 -76 10 -81 4z"/>
</g>
</svg>
